<svg width="3000" height="400" viewBox="0 0 3000 400" fill="none" xmlns="http://www.w3.org/2000/svg">
<rect width="3000" height="400" transform="matrix(-1 0 0 1 3000 0)" fill="#080957"/>
<path d="M584.319 0C837.798 0.000161388 1142.34 52.3943 1498.04 157.411C1854.48 262.647 2160.36 315.383 2415.55 315.383C2654.57 315.382 2849.56 269.108 3000 175.95V399.996H0V141.782C148.425 47.4858 343.018 0.000244771 584.319 0Z" fill="#336791"/>
<path d="M584.319 72.7256C837.798 72.7257 1142.34 115.594 1498.04 201.516C1854.48 287.618 2160.36 330.766 2415.55 330.766C2654.57 330.766 2849.56 292.905 3000 216.684V399.995H0V188.729C148.425 111.578 343.018 72.7258 584.319 72.7256Z" fill="#F9F9FA"/>
<path d="M584.319 138.185C837.798 138.185 1142.34 172.479 1498.04 241.217C1854.48 310.099 2160.36 344.617 2415.55 344.617C2654.57 344.617 2849.56 314.328 3000 253.352V400H0V230.987C148.425 169.266 343.018 138.185 584.319 138.185Z" fill="#689DC9"/>
<path d="M584.319 218.181C837.798 218.181 1142.34 241.996 1498.04 289.731C1854.48 337.566 2160.36 361.536 2415.55 361.536C2654.57 361.536 2849.56 340.502 3000 298.158V399.997H0V282.627C148.425 239.765 343.018 218.181 584.319 218.181Z" fill="#111217"/>
</svg>
