<svg width="3000" height="400" viewBox="0 0 3000 400" fill="none" xmlns="http://www.w3.org/2000/svg">
<rect x="3000" y="400" width="3000" height="400" transform="rotate(-180 3000 400)" fill="#080957"/>
<path d="M584.319 400C837.798 400 1142.34 347.606 1498.04 242.589C1854.48 137.354 2160.36 84.6178 2415.55 84.6176C2654.57 84.618 2849.56 130.892 3000 224.051V0.00402832H0V258.218C148.425 352.515 343.018 400 584.319 400Z" fill="#336791"/>
<path d="M584.319 327.275C837.798 327.275 1142.34 284.407 1498.04 198.484C1854.48 112.382 2160.36 69.2345 2415.55 69.2344C2654.57 69.2346 2849.56 107.096 3000 183.316V0.00507106H0V211.271C148.425 288.423 343.018 327.275 584.319 327.275Z" fill="#F9F9FA"/>
<path d="M584.319 261.816C837.798 261.816 1142.34 227.521 1498.04 158.783C1854.48 89.9016 2160.36 55.3836 2415.55 55.3835C2654.57 55.3837 2849.56 85.6725 3000 146.649V6.23078e-06H0V169.013C148.425 230.734 343.018 261.816 584.319 261.816Z" fill="#689DC9"/>
<path d="M584.319 181.82C837.798 181.82 1142.34 158.004 1498.04 110.269C1854.48 62.4349 2160.36 38.464 2415.55 38.4639C2654.57 38.4641 2849.56 59.498 3000 101.843V0.00320884H0V117.373C148.425 160.235 343.018 181.82 584.319 181.82Z" fill="#111217"/>
</svg>
