<svg width="3000" height="400" viewBox="0 0 3000 400" fill="none" xmlns="http://www.w3.org/2000/svg">
<rect width="3000" height="400" fill="#080957"/>
<path d="M2415.68 0C2162.2 0.000161388 1857.66 52.3943 1501.96 157.411C1145.52 262.647 839.643 315.383 584.451 315.383C345.428 315.382 150.442 269.108 0 175.95V399.996H3000V141.782C2851.57 47.4858 2656.98 0.000244771 2415.68 0Z" fill="#F05A28"/>
<path d="M2415.68 72.7256C2162.2 72.7257 1857.66 115.594 1501.96 201.516C1145.52 287.618 839.643 330.766 584.451 330.766C345.428 330.766 150.442 292.905 0 216.684V399.995H3000V188.729C2851.57 111.578 2656.98 72.7258 2415.68 72.7256Z" fill="#FBCA0A"/>
<path d="M2415.68 138.184C2162.2 138.184 1857.66 172.479 1501.96 241.217C1145.52 310.098 839.643 344.616 584.451 344.616C345.428 344.616 150.442 314.327 0 253.351V400H3000V230.987C2851.57 169.266 2656.98 138.184 2415.68 138.184Z" fill="#F97316"/>
<path d="M2415.68 218.181C2162.2 218.181 1857.66 241.996 1501.96 289.731C1145.52 337.566 839.643 361.536 584.451 361.536C345.428 361.536 150.442 340.502 0 298.158V399.997H3000V282.627C2851.57 239.765 2656.98 218.181 2415.68 218.181Z" fill="#111217"/>
</svg>
