<svg width="3000" height="400" viewBox="0 0 3000 400" fill="none" xmlns="http://www.w3.org/2000/svg">
<rect y="0.000976562" width="3000" height="400" fill="#080957"/>
<path d="M2415.68 400.001C2162.2 400.001 1857.66 347.607 1501.96 242.59C1145.52 137.354 839.643 84.6184 584.451 84.6182C345.428 84.6185 150.442 130.893 0 224.051V0.00462099H3000V258.219C2851.57 352.515 2656.98 400.001 2415.68 400.001Z" fill="#F05A28"/>
<path d="M2415.68 327.275C2162.2 327.275 1857.66 284.407 1501.96 198.485C1145.52 112.383 839.643 69.2351 584.451 69.235C345.428 69.2352 150.442 107.096 0 183.316V0.0056509H3000V211.272C2851.57 288.423 2656.98 327.275 2415.68 327.275Z" fill="#FBCA0A"/>
<path d="M2415.68 261.816C2162.2 261.816 1857.66 227.522 1501.96 158.784C1145.52 89.9022 839.643 55.3841 584.451 55.384C345.428 55.3842 150.442 85.673 0 146.649V0.000586065H3000V169.014C2851.57 230.735 2656.98 261.816 2415.68 261.816Z" fill="#F97316"/>
<path d="M2415.68 181.82C2162.2 181.82 1857.66 158.005 1501.96 110.27C1145.52 62.4355 839.643 38.4646 584.451 38.4645C345.428 38.4647 150.442 59.4985 0 101.843V0.00378868H3000V117.374C2851.57 160.236 2656.98 181.82 2415.68 181.82Z" fill="#111217"/>
</svg>
