<svg version="1.1" id="Layer_1" xmlns="http://www.w3.org/2000/svg" xmlns:xlink="http://www.w3.org/1999/xlink" x="0px" y="0px"
	 width="100%" viewBox="0 0 512 512" enable-background="new 0 0 512 512" xml:space="preserve">
<path fill="#115C77" opacity="1.000000" stroke="none" 
	d="
M513.000000,20.000000 
	C513.000000,177.690750 513.000000,335.381500 512.531555,493.538574 
	C498.995361,494.004974 485.927643,494.005157 472.859894,494.005157 
	C378.403229,494.005188 283.946533,494.006439 189.489868,493.998077 
	C186.993591,493.997864 184.497314,493.892548 181.881912,493.688354 
	C181.597092,493.348389 181.417938,493.169830 181.181305,492.537598 
	C181.122025,491.071533 181.093414,490.072632 181.093399,489.073700 
	C181.091156,334.545135 181.090591,180.016556 181.096283,25.487980 
	C181.096344,23.990892 181.180511,22.493809 181.364624,20.867607 
	C181.682770,20.558716 181.848053,20.367159 182.465363,20.107029 
	C292.954010,20.033493 402.977020,20.016747 513.000000,20.000000 
z"/>
<path fill="#115C77" opacity="1.000000" stroke="none" 
	d="
M1.000000,494.000000 
	C1.000000,336.309265 1.000000,178.618515 1.468655,20.462133 
	C40.744785,19.996326 79.552582,20.069157 118.359314,19.898701 
	C122.937248,19.878595 124.262619,21.189278 124.259499,25.762508 
	C124.154243,179.992950 124.155907,334.223480 124.253288,488.453949 
	C124.256027,492.787781 123.087486,494.133301 118.642250,494.102356 
	C90.662262,493.907410 62.680126,493.965454 34.699020,494.048340 
	C30.580873,494.060547 26.460957,494.950745 22.347975,494.903412 
	C15.229461,494.821442 8.115735,494.323456 1.000000,494.000000 
z"/>
<path fill="#000000" opacity="1.000000" stroke="none" 
	d="
M1.000000,494.469360 
	C8.115735,494.323456 15.229461,494.821442 22.347975,494.903412 
	C26.460957,494.950745 30.580873,494.060547 34.699020,494.048340 
	C62.680126,493.965454 90.662262,493.907410 118.642250,494.102356 
	C123.087486,494.133301 124.256027,492.787781 124.253288,488.453949 
	C124.155907,334.223480 124.154243,179.992950 124.259499,25.762508 
	C124.262619,21.189278 122.937248,19.878595 118.359314,19.898701 
	C79.552582,20.069157 40.744785,19.996326 1.468655,19.998249 
	C1.000000,13.671724 1.000000,7.343448 1.000000,1.037792 
	C171.666672,1.037792 342.333344,1.037792 513.000000,1.037792 
	C513.000000,7.070806 513.000000,13.066028 513.000000,19.530624 
	C402.977020,20.016747 292.954010,20.033493 182.251526,20.148796 
	C181.287537,20.419001 181.171997,20.668789 181.225403,20.996723 
	C181.180511,22.493809 181.096344,23.990892 181.096283,25.487980 
	C181.090591,180.016556 181.091156,334.545135 181.093399,489.073700 
	C181.093414,490.072632 181.122025,491.071533 181.204758,492.754150 
	C181.430542,493.725433 181.673477,493.858246 182.001038,493.836273 
	C184.497314,493.892548 186.993591,493.997864 189.489868,493.998077 
	C283.946533,494.006439 378.403229,494.005188 472.859894,494.005157 
	C485.927643,494.005157 498.995361,494.004974 512.531555,494.002441 
	C513.000000,500.328278 513.000000,506.656525 513.000000,512.962280 
	C342.333344,512.962280 171.666656,512.962280 1.000000,512.962280 
	C1.000000,506.929291 1.000000,500.934021 1.000000,494.469360 
z"/>
<path fill="#0E4E65" opacity="1.000000" stroke="none" 
	d="
M181.364624,20.867607 
	C181.171997,20.668789 181.287537,20.419001 181.785843,20.205585 
	C181.848053,20.367159 181.682770,20.558716 181.364624,20.867607 
z"/>
<path fill="#0E4E65" opacity="1.000000" stroke="none" 
	d="
M181.881912,493.688354 
	C181.673477,493.858246 181.430542,493.725433 181.248779,493.221313 
	C181.417938,493.169830 181.597092,493.348389 181.881912,493.688354 
z"/>
</svg>